<svg xmlns="http://www.w3.org/2000/svg" fill="none" viewBox="0 0 142 32" height="32" width="142">
<path fill="white" d="M9.82357 16.4C9.82357 13.904 10.3396 11.684 11.3716 9.74C12.4276 7.772 13.8676 6.236 15.6916 5.132C17.5396 4.028 19.6036 3.476 21.8836 3.476C24.7636 3.476 27.1876 4.148 29.1556 5.492C31.1236 6.836 32.5636 8.72 33.4756 11.144H31.6036C30.8836 9.224 29.6836 7.712 28.0036 6.608C26.3476 5.48 24.3076 4.916 21.8836 4.916C19.9396 4.916 18.1756 5.384 16.5916 6.32C15.0076 7.232 13.7596 8.564 12.8476 10.316C11.9356 12.044 11.4796 14.072 11.4796 16.4C11.4796 18.704 11.9356 20.72 12.8476 22.448C13.7596 24.152 15.0076 25.472 16.5916 26.408C18.1756 27.344 19.9396 27.812 21.8836 27.812C24.3076 27.812 26.3476 27.26 28.0036 26.156C29.6836 25.028 30.8836 23.504 31.6036 21.584H33.4756C32.5636 24.008 31.1236 25.892 29.1556 27.236C27.1876 28.58 24.7636 29.252 21.8836 29.252C19.6036 29.252 17.5396 28.712 15.6916 27.632C13.8676 26.528 12.4276 25.004 11.3716 23.06C10.3396 21.092 9.82357 18.872 9.82357 16.4ZM50.7387 29L44.2587 18.236H44.1147H38.7147V29H37.0947V3.728H44.0427C46.8507 3.728 48.9507 4.388 50.3427 5.708C51.7587 7.028 52.4667 8.78 52.4667 10.964C52.4667 12.908 51.9147 14.516 50.8107 15.788C49.7307 17.036 48.1467 17.804 46.0587 18.092L52.6827 29H50.7387ZM38.7147 16.868H44.1147C46.3467 16.868 48.0147 16.328 49.1187 15.248C50.2227 14.168 50.7747 12.74 50.7747 10.964C50.7747 7.1 48.5307 5.168 44.0427 5.168H38.7147V16.868ZM71.4224 3.728L63.4664 18.776V29H61.8464V18.776L53.8184 3.728H55.6544L62.6384 17.264L69.5864 3.728H71.4224ZM81.1789 29.252C79.5469 29.252 78.1189 28.964 76.8949 28.388C75.6709 27.812 74.7109 27.032 74.0149 26.048C73.3429 25.064 72.9589 23.972 72.8629 22.772H74.5549C74.7469 24.092 75.3589 25.268 76.3909 26.3C77.4469 27.332 79.0429 27.848 81.1789 27.848C82.4269 27.848 83.5069 27.62 84.4189 27.164C85.3549 26.708 86.0749 26.084 86.5789 25.292C87.0829 24.5 87.3349 23.624 87.3349 22.664C87.3349 21.44 87.0349 20.468 86.4349 19.748C85.8589 19.028 85.1269 18.488 84.2389 18.128C83.3749 17.768 82.1989 17.384 80.7109 16.976C79.0789 16.544 77.7589 16.112 76.7509 15.68C75.7669 15.248 74.9269 14.588 74.2309 13.7C73.5589 12.788 73.2229 11.552 73.2229 9.992C73.2229 8.792 73.5349 7.7 74.1589 6.716C74.8069 5.708 75.7189 4.916 76.8949 4.34C78.0709 3.764 79.4269 3.476 80.9629 3.476C83.1949 3.476 84.9949 4.028 86.3629 5.132C87.7309 6.236 88.5469 7.592 88.8109 9.2H87.0829C86.9389 8.552 86.6149 7.892 86.1109 7.22C85.6309 6.548 84.9349 5.996 84.0229 5.564C83.1349 5.108 82.0669 4.88 80.8189 4.88C79.1389 4.88 77.7229 5.348 76.5709 6.284C75.4189 7.196 74.8429 8.42 74.8429 9.956C74.8429 11.18 75.1429 12.164 75.7429 12.908C76.3429 13.628 77.0749 14.18 77.9389 14.564C78.8269 14.924 80.0149 15.296 81.5029 15.68C83.1589 16.136 84.4669 16.58 85.4269 17.012C86.4109 17.42 87.2389 18.08 87.9109 18.992C88.6069 19.88 88.9549 21.092 88.9549 22.628C88.9549 23.756 88.6549 24.824 88.0549 25.832C87.4549 26.84 86.5669 27.668 85.3909 28.316C84.2389 28.94 82.8349 29.252 81.1789 29.252ZM106.333 3.728V5.096H99.1325V29H97.5125V5.096H90.3125V3.728H106.333ZM123.077 22.52H111.089L108.677 29H106.913L116.201 4.304H118.001L127.253 29H125.489L123.077 22.52ZM122.573 21.152L117.101 6.428L111.593 21.152H122.573ZM131.499 27.632H140.895V29H129.879V3.728H131.499V27.632Z"></path>
<path stroke-linejoin="round" stroke-linecap="round" stroke-width="0.375" stroke="white" d="M3.04004 21.3062L3.32989 10.7539"></path>
<path stroke-linejoin="round" stroke-linecap="round" stroke-width="0.375" stroke="white" d="M1.24869 12.2576L3.25394 13.5506L1.18073 14.7316L3.18599 16.0247L1.11288 17.202L3.11813 18.495L1.04492 19.676"></path>
<path stroke-linejoin="round" stroke-linecap="round" stroke-width="0.375" stroke="white" d="M1.24681 12.2646L1.04304 19.6831L3.03923 21.306L10.0403 16.2201L3.32908 10.7537L1.24681 12.2646Z"></path>
</svg>
