<svg xmlns="http://www.w3.org/2000/svg" fill="none" viewBox="0 0 142 32" height="32" width="142">
<path fill="black" d="M9.82455 16.4C9.82455 13.904 10.3405 11.684 11.3725 9.74C12.4285 7.772 13.8685 6.236 15.6925 5.132C17.5405 4.028 19.6045 3.476 21.8845 3.476C24.7645 3.476 27.1885 4.148 29.1565 5.492C31.1245 6.836 32.5645 8.72 33.4765 11.144H31.6045C30.8845 9.224 29.6845 7.712 28.0045 6.608C26.3485 5.48 24.3085 4.916 21.8845 4.916C19.9405 4.916 18.1765 5.384 16.5925 6.32C15.0085 7.232 13.7605 8.564 12.8485 10.316C11.9365 12.044 11.4805 14.072 11.4805 16.4C11.4805 18.704 11.9365 20.72 12.8485 22.448C13.7605 24.152 15.0085 25.472 16.5925 26.408C18.1765 27.344 19.9405 27.812 21.8845 27.812C24.3085 27.812 26.3485 27.26 28.0045 26.156C29.6845 25.028 30.8845 23.504 31.6045 21.584H33.4765C32.5645 24.008 31.1245 25.892 29.1565 27.236C27.1885 28.58 24.7645 29.252 21.8845 29.252C19.6045 29.252 17.5405 28.712 15.6925 27.632C13.8685 26.528 12.4285 25.004 11.3725 23.06C10.3405 21.092 9.82455 18.872 9.82455 16.4ZM50.7397 29L44.2597 18.236H44.1157H38.7157V29H37.0957V3.728H44.0437C46.8517 3.728 48.9517 4.388 50.3437 5.708C51.7597 7.028 52.4677 8.78 52.4677 10.964C52.4677 12.908 51.9157 14.516 50.8117 15.788C49.7317 17.036 48.1477 17.804 46.0597 18.092L52.6837 29H50.7397ZM38.7157 16.868H44.1157C46.3477 16.868 48.0157 16.328 49.1197 15.248C50.2237 14.168 50.7757 12.74 50.7757 10.964C50.7757 7.1 48.5317 5.168 44.0437 5.168H38.7157V16.868ZM71.4234 3.728L63.4674 18.776V29H61.8474V18.776L53.8194 3.728H55.6554L62.6394 17.264L69.5874 3.728H71.4234ZM81.1799 29.252C79.5479 29.252 78.1199 28.964 76.8959 28.388C75.6719 27.812 74.7119 27.032 74.0159 26.048C73.3439 25.064 72.9599 23.972 72.8639 22.772H74.5559C74.7479 24.092 75.3599 25.268 76.3919 26.3C77.4479 27.332 79.0439 27.848 81.1799 27.848C82.4279 27.848 83.5079 27.62 84.4199 27.164C85.3559 26.708 86.0759 26.084 86.5799 25.292C87.0839 24.5 87.3359 23.624 87.3359 22.664C87.3359 21.44 87.0359 20.468 86.4359 19.748C85.8599 19.028 85.1279 18.488 84.2399 18.128C83.3759 17.768 82.1999 17.384 80.7119 16.976C79.0799 16.544 77.7599 16.112 76.7519 15.68C75.7679 15.248 74.9279 14.588 74.2319 13.7C73.5599 12.788 73.2239 11.552 73.2239 9.992C73.2239 8.792 73.5359 7.7 74.1599 6.716C74.8079 5.708 75.7199 4.916 76.8959 4.34C78.0719 3.764 79.4279 3.476 80.9639 3.476C83.1959 3.476 84.9959 4.028 86.3639 5.132C87.7319 6.236 88.5479 7.592 88.8119 9.2H87.0839C86.9399 8.552 86.6159 7.892 86.1119 7.22C85.6319 6.548 84.9359 5.996 84.0239 5.564C83.1359 5.108 82.0679 4.88 80.8199 4.88C79.1399 4.88 77.7239 5.348 76.5719 6.284C75.4199 7.196 74.8439 8.42 74.8439 9.956C74.8439 11.18 75.1439 12.164 75.7439 12.908C76.3439 13.628 77.0759 14.18 77.9399 14.564C78.8279 14.924 80.0159 15.296 81.5039 15.68C83.1599 16.136 84.4679 16.58 85.4279 17.012C86.4119 17.42 87.2399 18.08 87.9119 18.992C88.6079 19.88 88.9559 21.092 88.9559 22.628C88.9559 23.756 88.6559 24.824 88.0559 25.832C87.4559 26.84 86.5679 27.668 85.3919 28.316C84.2399 28.94 82.8359 29.252 81.1799 29.252ZM106.334 3.728V5.096H99.1335V29H97.5135V5.096H90.3135V3.728H106.334ZM123.078 22.52H111.09L108.678 29H106.914L116.202 4.304H118.002L127.254 29H125.49L123.078 22.52ZM122.574 21.152L117.102 6.428L111.594 21.152H122.574ZM131.5 27.632H140.896V29H129.88V3.728H131.5V27.632Z"></path>
<path stroke-linejoin="round" stroke-linecap="round" stroke-width="0.375" stroke="black" d="M3.04102 21.3062L3.33087 10.7539"></path>
<path stroke-linejoin="round" stroke-linecap="round" stroke-width="0.375" stroke="black" d="M1.24869 12.2576L3.25394 13.5506L1.18073 14.7316L3.18599 16.0247L1.11288 17.202L3.11813 18.495L1.04492 19.676"></path>
<path stroke-linejoin="round" stroke-linecap="round" stroke-width="0.375" stroke="black" d="M1.24681 12.2646L1.04304 19.6831L3.03923 21.306L10.0403 16.2201L3.32908 10.7537L1.24681 12.2646Z"></path>
</svg>
